<svg width="500" height="480" viewBox="0 0 500 480" fill="#000000" xmlns="http://www.w3.org/2000/svg">
<path fill-rule="evenodd" clip-rule="evenodd" d="M189.836 3.61408C170.141 6.18374 132.809 18.2394 109.284 29.6351C92.447 37.7902 49.22 80.055 34.6131 102.647C-18.8078 185.278 -9.62781 295.737 56.8589 370.334C72.3616 387.728 73.9211 390.822 68.1035 392.676C-16.2381 419.6 -14.0777 442.605 75.1967 468.214C157.861 491.923 331.411 476.476 394.251 439.807C413.721 428.448 465.055 378.692 465.055 371.182C465.055 368.17 468.454 361.383 472.613 356.1C507.747 311.431 509.288 219.075 476.012 152.518C462.865 126.228 419.951 73.4594 411.712 73.4594C410.347 73.4594 398.981 66.2039 386.45 57.3336C342.471 26.1954 254.269 -3.34649 216.2 0.307074C214.172 0.498784 202.308 1.98823 189.836 3.61408ZM258.597 25.5318C258.597 27.5595 254.866 29.2296 250.302 29.248C180.748 29.484 78.3747 121.575 64.8849 196.044C61.8913 212.571 60.2765 212.781 36.9468 199.73C20.1648 190.344 18.9924 188.773 21.0938 178.532C27.8479 145.672 59.6608 90.3263 81.0661 74.2078C88.34 68.7256 97.2029 61.389 100.761 57.8977C111.29 47.5674 151.778 28.6286 169.891 25.5613C195.37 21.2441 258.597 21.2256 258.597 25.5318ZM329.357 53.3667C500.072 97.6039 539.767 315.523 395.906 418.712C292.375 492.97 135.346 446.506 92.4507 328.914C34.0564 168.85 169.057 11.8281 329.357 53.3667ZM116.278 214.477C117.554 219.038 122.966 239.923 128.304 260.882C142.259 315.693 148.906 316.725 158.333 265.55C166.079 223.488 167.933 223.646 175.742 267.013C182.654 305.418 192.527 315.734 197.792 290.055C199.145 283.467 203.2 268.119 206.806 255.953C219.149 214.315 219.75 205.43 210.12 206.82C201.597 208.048 201.022 209.541 194.33 247.658C190.603 268.886 186.319 264.241 181.379 233.619C174.724 192.353 160.088 193.385 152.15 235.676C149.297 250.884 146.273 264.108 145.433 265.063C143.081 267.743 137.182 256.69 139.213 253.402C144.987 244.067 132.072 206.182 123.121 206.182C115.386 206.182 114.317 207.476 116.278 214.477ZM236.352 208.025C236.282 209.039 236.167 230.194 236.097 255.031L235.968 300.194H264.795C291.162 300.194 293.621 299.564 293.621 292.821C293.621 286.343 290.797 285.314 270.358 284.345L247.098 283.239L248.238 271.441C249.347 259.972 249.926 259.607 268.736 258.526C298.381 256.819 297.563 243.05 267.814 243.05C247.744 243.05 247.537 242.939 247.537 231.989V220.929H269.658C289.319 220.929 291.778 220.111 291.778 213.556C291.778 206.672 236.82 201.187 236.352 208.025ZM304.682 209.869C300.8 216.151 306.47 220.929 317.803 220.929H328.646V261.741C328.646 301.953 328.767 302.531 336.941 301.374C344.875 300.246 345.28 298.48 346.279 260.786L347.323 221.379L359.153 220.232C366.914 219.48 371.404 216.866 372.204 212.634C373.602 205.26 309.161 202.621 304.682 209.869ZM383.947 254.11C383.947 299.169 384.378 302.037 391.136 302.037C397.304 302.037 398.483 299.022 399.431 280.839L400.537 259.64H417.127H433.718L434.053 279.917C434.344 297.746 435.347 300.338 442.348 301.374C450.157 302.528 450.308 301.643 450.308 254.368C450.308 209.091 449.877 206.182 443.137 206.182C437.198 206.182 435.771 209.19 434.842 223.694L433.718 241.206H417.127H400.537L399.413 223.694C398.483 209.19 397.057 206.182 391.117 206.182C384.382 206.182 383.947 209.091 383.947 254.11ZM44.5231 225.537C55.7344 233.346 56.5124 235.363 57.8543 260.001L59.2774 286.166L41.9718 277.406C21.2855 266.936 20.4118 265.568 17.0495 238.441C13.971 213.6 21.986 209.836 44.5231 225.537ZM46.3922 303.999C50.3297 306.974 56.4165 309.411 59.9263 309.411C63.9669 309.411 67.1634 313.334 68.6565 320.128C69.9505 326.02 76.6162 340.155 83.4698 351.536C104.016 385.66 102.759 389.435 78.6512 365.973C60.6636 348.461 46.1268 327.185 34.3403 301.116C32.3199 296.64 38.6759 298.159 46.3922 303.999Z" fill="#000000"/>
</svg>
