<svg width="46" height="35" viewBox="0 0 46 35" fill="none" xmlns="http://www.w3.org/2000/svg">
<path d="M29.7293 0.536141C32.8688 1.10068 35.882 2.0498 38.6703 3.34308C43.7241 10.8186 46.2225 19.2128 45.3174 28.8808C41.5355 31.6292 37.8994 33.3198 34.2842 34.4519C33.5798 33.4431 32.9231 32.3891 32.3271 31.2898C33.4562 30.8396 34.5559 30.3274 35.6061 29.7043C35.8138 29.6019 35.944 29.4015 35.9572 29.1785C35.97 28.961 35.8707 28.7578 35.7058 28.6289C35.5818 28.5277 35.4586 28.4326 35.3413 28.3422L35.339 28.3404C35.2222 28.2503 35.1112 28.1647 35.0012 28.0751C34.7783 27.8739 34.4894 27.8909 34.3061 27.9777C26.9941 31.3474 19.0221 31.3484 11.6198 27.9769C11.4402 27.8925 11.1603 27.8752 10.94 28.0631C10.821 28.1501 10.7032 28.241 10.5914 28.3272L10.5885 28.3295C10.467 28.4232 10.3523 28.5117 10.2387 28.5941L10.207 28.6172L10.1792 28.6449C10.0335 28.7903 9.97664 28.9847 9.98678 29.1566C9.99706 29.3313 10.0854 29.5561 10.3158 29.6788C11.3813 30.2805 12.467 30.8109 13.6052 31.2691C13.0232 32.3705 12.3645 33.4265 11.642 34.4373C8.06232 33.3052 4.44157 31.6174 0.676251 28.8811C-0.0862824 20.4988 1.5335 12.0382 7.3342 3.32798C10.1366 2.04109 13.1207 1.09709 16.2479 0.535087C16.6195 1.2008 17.01 1.99239 17.2771 2.64001L17.4264 3.00209L17.8137 2.9438C21.2496 2.42669 24.7436 2.42669 28.1795 2.9438L28.5626 3.00145L28.7141 2.64491C28.9821 2.01423 29.3726 1.20693 29.7293 0.536141ZM10.7334 19.2231C10.7334 22.0056 12.7915 24.3594 15.3735 24.3594C18.0019 24.3594 20.0126 22.0032 20.0137 19.2253C20.0364 16.465 18.0233 14.0868 15.3735 14.0868C12.7445 14.0868 10.7334 16.4443 10.7334 19.2231ZM26.0015 19.2231C26.0015 22.0056 28.0596 24.3594 30.6416 24.3594C33.2935 24.3594 35.2807 22.0014 35.2817 19.2252C35.3044 16.465 33.2913 14.0868 30.6416 14.0868C28.0125 14.0868 26.0015 16.4443 26.0015 19.2231Z" fill="white" stroke="white"/>
</svg>
