<svg width="44" height="43" viewBox="0 0 44 43" fill="none" xmlns="http://www.w3.org/2000/svg">
<path d="M10.199 37.5444C11.3377 38.4913 13.1682 39.2187 16 38.7457V41.8642C16 42.0762 15.9359 42.2488 15.8349 42.3488C15.754 42.4288 15.5757 42.5356 15.166 42.478C6.65058 39.6016 0.5 31.5359 0.5 22.0338C0.5 16.3224 2.76536 10.8451 6.79748 6.80683C8.79397 4.80727 11.1641 3.22117 13.7726 2.13906C16.381 1.05695 19.1767 0.5 22 0.5C24.8233 0.5 27.619 1.05695 30.2274 2.13906C32.8359 3.22117 35.206 4.80727 37.2025 6.80683C39.199 8.80639 40.7828 11.1803 41.8633 13.7929C42.9438 16.4056 43.5 19.2058 43.5 22.0338C43.5 31.5373 37.3695 39.5824 28.8514 42.4795C28.43 42.5464 28.2491 42.4374 28.1679 42.3571C28.0647 42.2549 28 42.0775 28 41.8642V35.8269C28 34.2186 27.5758 32.9811 26.9801 32.125C29.1717 31.7976 31.407 31.1436 33.1689 29.6753C35.2095 27.9746 36.536 25.2507 36.536 20.9321C36.536 18.4766 35.7306 16.4689 34.3414 14.8519C34.6438 13.9407 35.1383 11.7215 34.0131 8.95562L33.9253 8.73955L33.7032 8.66807L33.55 9.14402C33.7032 8.66807 33.7027 8.66792 33.7022 8.66776L33.7012 8.66743L33.699 8.66675L33.6942 8.66525L33.6823 8.66175C33.6735 8.65922 33.6628 8.65631 33.6502 8.65314C33.625 8.64681 33.5924 8.63947 33.5521 8.63213C33.4715 8.61743 33.3609 8.60277 33.2193 8.59604C32.9359 8.58256 32.5312 8.60097 31.9984 8.71246C30.9654 8.92858 29.4553 9.49346 27.4112 10.8491C25.6882 10.3918 23.8322 10.1643 22 10.1643C20.1678 10.1643 18.3118 10.3918 16.5888 10.8491C14.5447 9.49346 13.0346 8.92858 12.0016 8.71246C11.4688 8.60097 11.0641 8.58256 10.7807 8.59604C10.6391 8.60277 10.5285 8.61743 10.4479 8.63213C10.4076 8.63947 10.375 8.64681 10.3498 8.65314C10.3372 8.65631 10.3265 8.65922 10.3177 8.66175L10.3058 8.66525L10.301 8.66675L10.2988 8.66743L10.2978 8.66776C10.2973 8.66792 10.2968 8.66807 10.45 9.14402L10.2968 8.66807L10.0747 8.73955L9.98685 8.95562C8.86174 11.7215 9.35622 13.9407 9.65861 14.8519C8.26942 16.4689 7.464 18.4766 7.464 20.9321C7.464 25.2394 8.78469 27.9677 10.8156 29.6765C12.574 31.156 14.8061 31.8196 16.9946 32.1487C16.6101 32.7189 16.3006 33.458 16.1386 34.3667C15.5249 34.5993 14.6211 34.8489 13.6778 34.7669C12.629 34.6758 11.4927 34.174 10.6213 32.6504C10.6209 32.6497 10.6205 32.649 10.6201 32.6483L10.6175 32.6436L10.604 32.6203C10.5928 32.601 10.5768 32.5743 10.5561 32.5411C10.5149 32.4748 10.4548 32.3825 10.376 32.2725C10.219 32.0531 9.98518 31.7596 9.67567 31.4602C9.06028 30.8648 8.11386 30.2164 6.85497 30.1282L6.84261 30.1273L6.83022 30.1271L6.82 30.627C6.83022 30.1271 6.83006 30.1271 6.82989 30.1271L6.82952 30.127L6.82861 30.127L6.82621 30.127L6.81906 30.1269L6.79592 30.1268C6.77678 30.1268 6.75026 30.127 6.71798 30.1279C6.65387 30.1296 6.5648 30.1338 6.46428 30.1439C6.28324 30.1622 5.98912 30.206 5.75021 30.3382C5.6257 30.4071 5.46748 30.5266 5.37824 30.7268C5.28165 30.9436 5.30358 31.1682 5.38488 31.3607C5.4608 31.5404 5.59195 31.7048 5.74849 31.8577C5.90875 32.0142 6.11918 32.1812 6.38418 32.362L6.41587 32.3836L6.44625 32.3981L6.44687 32.3984L6.44728 32.3986C6.4479 32.3989 6.44879 32.3994 6.44994 32.4C6.45497 32.4026 6.46507 32.4081 6.4798 32.4165C6.50925 32.4335 6.55723 32.4627 6.62025 32.5065C6.74622 32.5939 6.93264 32.7394 7.15169 32.9613C7.58676 33.402 8.15714 34.1504 8.63709 35.3568C8.64091 35.3684 8.64613 35.3839 8.65285 35.4028C8.66657 35.4415 8.68658 35.4949 8.71381 35.5605C8.7682 35.6917 8.85171 35.8726 8.97177 36.083C9.21153 36.5031 9.60032 37.0465 10.199 37.5444Z" fill="white" stroke="white"/>
</svg>
