<svg width="45" height="28" viewBox="0 0 45 28" fill="none" xmlns="http://www.w3.org/2000/svg">
<path d="M13.6723 1.45825C17.0272 1.45825 20.2448 2.791 22.6171 5.1633C24.9894 7.5356 26.3221 10.7531 26.3221 14.1081C26.3221 17.463 24.9894 20.6805 22.6171 23.0528C20.2448 25.4251 17.0272 26.7579 13.6723 26.7579C10.3173 26.7579 7.09981 25.4251 4.72751 23.0528C2.35521 20.6805 1.02246 17.463 1.02246 14.1081C1.02246 10.7531 2.35521 7.5356 4.72751 5.1633C7.09981 2.791 10.3173 1.45825 13.6723 1.45825ZM33.397 3.64989C34.7558 3.64989 35.9937 4.66316 36.9192 6.57746C37.8365 8.47458 38.3761 11.1347 38.3761 14.1081C38.3761 17.0814 37.8365 19.7416 36.9192 21.6387C35.9937 23.553 34.7558 24.5663 33.397 24.5663C32.0383 24.5663 30.8004 23.553 29.8748 21.6387C28.9576 19.7416 28.4179 17.0814 28.4179 14.1081C28.4179 11.1347 28.9576 8.47458 29.8748 6.57746C30.8004 4.66316 32.0383 3.64989 33.397 3.64989ZM42.1636 4.74571C42.1741 4.74571 42.2499 4.74864 42.3881 4.90664C42.5264 5.06477 42.6815 5.32988 42.837 5.72414C43.1463 6.50836 43.4135 7.68994 43.5953 9.22406C43.5954 9.22501 43.5956 9.22596 43.5957 9.22691L43.6973 10.1856L43.7381 10.6894L43.8032 11.7616L43.8247 12.3196L43.8509 13.4976L43.8509 13.5011L43.8552 14.1045V14.1116L43.8509 14.715L43.8509 14.7186L43.8247 15.8965L43.8032 16.4568L43.7381 17.5257L43.6952 18.0307L43.5974 18.9931C43.4145 20.5279 43.1473 21.7091 42.8381 22.4928C42.6826 22.8869 42.5276 23.1517 42.3893 23.3095C42.2514 23.467 42.1752 23.4704 42.1636 23.4704C42.1531 23.4704 42.0772 23.4675 41.939 23.3095C41.8008 23.1514 41.6456 22.8863 41.4901 22.492C41.1809 21.7078 40.9136 20.5264 40.7318 18.9924C40.7317 18.9913 40.7316 18.9903 40.7315 18.9892L40.6298 18.0306L40.5891 17.5269L40.5239 16.4545L40.5024 15.8965L40.4763 14.7205V13.4956L40.5024 12.3194L40.5239 11.7594L40.589 10.6904L40.632 10.1855L40.7297 9.22284C40.9126 7.68812 41.1798 6.50705 41.489 5.72337C41.6445 5.32927 41.7996 5.06448 41.9378 4.90661C42.0758 4.7491 42.152 4.74571 42.1636 4.74571Z" fill="white" stroke="white"/>
</svg>
