<svg width="44" height="44" viewBox="0 0 44 44" fill="none" xmlns="http://www.w3.org/2000/svg">
<path d="M32.7059 15.0073L32.7058 15.0073C32.3734 18.5086 30.9392 26.9775 30.2135 30.8696L30.2135 30.8697C29.8952 32.575 29.2005 33.4349 28.2833 33.5407L28.2761 33.5415L28.2689 33.5422C27.4862 33.6096 26.8191 33.3476 26.2193 32.9972C25.9209 32.8229 25.6291 32.6206 25.3441 32.4185C25.286 32.3773 25.2283 32.3361 25.1708 32.2951C24.9411 32.1314 24.7137 31.9693 24.4748 31.8115C24.4747 31.8114 24.4745 31.8113 24.4744 31.8112L24.75 31.394C23.7765 30.7524 23.0144 30.2331 22.2594 29.7188C21.513 29.2102 20.7737 28.7065 19.844 28.094L32.7059 15.0073ZM32.7059 15.0073L32.7067 14.9956C32.7199 14.8107 32.713 14.6083 32.7077 14.4582L32.7068 14.4343C32.7043 14.365 32.7023 14.3088 32.7018 14.2613C32.7013 14.2166 32.7026 14.1995 32.7023 14.1995L32.7132 14.1343L32.7041 14.062C32.6749 13.8285 32.5794 13.4354 32.2162 13.1426L32.7059 15.0073ZM14.1532 25.7558C15.0096 25.7823 15.9072 25.4091 16.8235 24.7906C19.8264 22.7667 22.0964 21.2442 23.64 20.2224C24.4121 19.7113 25.0004 19.327 25.4069 19.0682C25.4194 19.0603 25.4316 19.0525 25.4437 19.0448C25.34 19.1526 25.2239 19.271 25.097 19.3983C24.554 19.9433 23.8339 20.6334 23.1033 21.3228C22.2623 22.1165 21.399 22.9168 20.7901 23.4811C20.3521 23.8872 20.0458 24.1711 19.9744 24.2424L19.9714 24.2455C19.8213 24.3983 19.6678 24.5449 19.5134 24.6915C19.501 24.7033 19.4886 24.7151 19.4762 24.7269C19.336 24.86 19.1941 24.9948 19.0624 25.1273C18.7836 25.4079 18.4998 25.7267 18.3415 26.0855C18.1681 26.4787 18.1493 26.9123 18.3815 27.3556C18.5947 27.7626 18.9989 28.1372 19.5693 28.5118L14.168 25.256M14.1532 25.7558C14.153 25.7558 14.1527 25.7558 14.1524 25.7558L14.168 25.256M14.1532 25.7558C14.1535 25.7558 14.1538 25.7558 14.1541 25.7558L14.168 25.256M14.1532 25.7558C13.699 25.743 13.0824 25.621 12.465 25.4659C11.8379 25.3085 11.1724 25.1071 10.6033 24.9175M14.168 25.256C13.376 25.234 11.88 24.816 10.758 24.442C10.6146 24.3965 10.4746 24.3531 10.3388 24.311C9.16148 23.9463 8.3031 23.6804 8.382 22.99C8.426 22.594 8.976 22.198 10.01 21.78M10.6033 24.9175C10.6044 24.9178 10.6056 24.9182 10.6067 24.9186L10.758 24.442L10.5999 24.9163C10.601 24.9167 10.6022 24.9171 10.6033 24.9175ZM10.6033 24.9175C10.4735 24.8763 10.343 24.8359 10.2134 24.7958C9.68791 24.6333 9.17823 24.4756 8.79708 24.2887C8.55309 24.169 8.30783 24.0134 8.13088 23.7923C7.93933 23.553 7.84791 23.2615 7.88515 22.934M7.88515 22.934C7.88512 22.9343 7.88509 22.9345 7.88506 22.9348L8.3817 22.99L7.88523 22.9332C7.8852 22.9335 7.88517 22.9337 7.88515 22.934ZM7.88515 22.934C7.93092 22.5249 8.22093 22.2173 8.52801 21.9908C8.84828 21.7547 9.28661 21.5335 9.8165 21.3189M9.8165 21.3189C9.81452 21.3198 9.81255 21.3206 9.81058 21.3215L10.01 21.78M9.8165 21.3189C16.234 18.5277 20.5053 16.6783 22.6445 15.7961M9.8165 21.3189C9.81853 21.3181 9.82057 21.3173 9.82261 21.3164L10.01 21.78M10.01 21.78L22.6445 15.7961M22.6445 15.7961C22.6448 15.796 22.6451 15.7959 22.6454 15.7958L22.836 16.258L22.6435 15.7966C22.6438 15.7964 22.6441 15.7963 22.6445 15.7961ZM25.9446 18.4783C25.9444 18.4786 25.9441 18.4792 25.9436 18.4798C25.945 18.4773 25.9458 18.4761 25.9457 18.4763C25.9457 18.4764 25.9453 18.4771 25.9446 18.4783ZM0.5 22C0.5 10.1321 10.1321 0.5 22 0.5C33.8679 0.5 43.5 10.1321 43.5 22C43.5 33.8679 33.8679 43.5 22 43.5C10.1321 43.5 0.5 33.8679 0.5 22Z" fill="white" stroke="white"/>
</svg>
