<svg width="35" height="31" viewBox="0 0 35 31" fill="none" xmlns="http://www.w3.org/2000/svg">
<path d="M15.3683 19.8277L5.83772 30.5H1.80796L13.6052 17.2868L13.8833 16.9753L13.6263 16.6462L1.02451 0.5H10.8296L18.3248 10.2105L18.6927 10.6872L19.0936 10.238L27.7864 0.5H31.8139L20.8327 12.7982L20.556 13.108L20.8098 13.4367L33.9824 30.5H24.4443L16.1354 19.8531L15.7671 19.3811L15.3683 19.8277ZM25.2871 28.1606L25.4373 28.353H25.6812H28.6562H29.6739L29.052 27.5474L9.85235 2.67687L9.70223 2.48241H9.45656H6.26719H5.24259L5.87305 3.29008L25.2871 28.1606Z" fill="white" stroke="white"/>
</svg>
