<?xml version="1.0" encoding="utf-8"?>
<!-- Generator: Adobe Illustrator 24.3.0, SVG Export Plug-In . SVG Version: 6.00 Build 0)  -->
<svg version="1.0" id="Layer_1" xmlns="http://www.w3.org/2000/svg" xmlns:xlink="http://www.w3.org/1999/xlink" x="0px" y="0px"
	 viewBox="0 0 2112 1464.9" style="enable-background:new 0 0 2112 1464.9;" xml:space="preserve">
<style type="text/css">
	.st0{fill:#213147;}
	.st1{fill:#12AAFF;}
	.st2{fill:#9DCCED;}
	.st3{fill:#FFFFFF;}
</style>
<g>
	<g>
		<path class="st0" d="M112.4,636.6v191.7c0,12.2,6.5,23.5,17.1,29.6l166,95.8c10.6,6.1,23.6,6.1,34.2,0l166-95.8
			c10.6-6.1,17.1-17.4,17.1-29.6V636.6c0-12.2-6.5-23.5-17.1-29.6l-166-95.8c-10.6-6.1-23.6-6.1-34.2,0l-166,95.8
			C119,613.1,112.4,624.4,112.4,636.6z"/>
		<g>
			<g>
				<g>
					<path class="st1" d="M348.9,769.6l-23.7,64.9c-0.7,1.8-0.7,3.8,0,5.6l40.7,111.7l47.1-27.2l-56.5-155
						C355.2,766,350.2,766,348.9,769.6z"/>
				</g>
				<g>
					<path class="st1" d="M396.3,660.4c-1.3-3.6-6.3-3.6-7.6,0L365,725.3c-0.7,1.8-0.7,3.8,0,5.6l66.7,182.9l47.1-27.2L396.3,660.4z
						"/>
				</g>
			</g>
		</g>
		<path class="st2" d="M312.6,518.3c1.2,0,2.3,0.3,3.4,0.9l179.6,103.7c2.1,1.2,3.4,3.4,3.4,5.8v207.4c0,2.4-1.3,4.6-3.4,5.8
			L316,945.7c-1,0.6-2.2,0.9-3.4,0.9s-2.3-0.3-3.4-0.9L129.7,842c-2.1-1.2-3.4-3.4-3.4-5.8V628.7c0-2.4,1.3-4.6,3.4-5.8l179.6-103.7
			C310.3,518.6,311.5,518.3,312.6,518.3 M312.6,488c-6.4,0-12.8,1.7-18.5,5L114.5,596.7c-11.4,6.6-18.5,18.8-18.5,32v207.4
			c0,13.2,7.1,25.5,18.5,32.1l179.6,103.7c5.7,3.3,12.1,5,18.5,5s12.8-1.7,18.5-5l179.6-103.7c11.5-6.6,18.5-18.8,18.5-32.1V628.7
			c0-13.2-7.1-25.5-18.5-32.1L331.2,493C325.4,489.7,319,488,312.6,488L312.6,488z"/>
		<polygon class="st0" points="193.9,914 210.4,868.8 243.6,896.4 212.6,924.8 		"/>
		<g>
			<path class="st3" d="M297.5,613.9H252c-3.4,0-6.5,2.1-7.6,5.3l-97.6,267.6l47.1,27.2l107.5-294.7
				C302.3,616.7,300.4,613.9,297.5,613.9z"/>
			<path class="st3" d="M377.2,613.9h-45.5c-3.4,0-6.5,2.1-7.6,5.3L212.6,924.8l47.1,27.2L381,619.4
				C382,616.7,380,613.9,377.2,613.9z"/>
		</g>
	</g>
	<g>
		<g>
			<path class="st0" d="M723.1,669.6c4.5,0,8.4,0.9,11.5,2.8c3.1,1.9,6.2,5.5,9.2,10.9l59.4,107.8c0.6,1.2,0.7,2.2,0.4,3
				c-0.3,0.8-1.2,1.2-2.6,1.2h-22.8c-2,0-3.4-0.8-4.1-2.3l-12.7-23.1h-84.3L664.7,793c-0.8,1.6-2.2,2.3-4.1,2.3h-23.3
				c-1.6,0-2.5-0.4-2.8-1.2c-0.3-0.8-0.2-1.8,0.4-3l58.9-107.8c3-5.4,5.9-9,8.8-10.9c2.9-1.9,6.2-2.8,10-2.8H723.1z M688.2,748.9
				H750l-28.5-52.6c-0.5-0.8-1.1-1.3-2-1.3h-1.1c-0.8,0-1.5,0.4-2,1.3L688.2,748.9z"/>
			<path class="st0" d="M933.7,669.6c13.8,0,23.6,3.1,29.6,9.3c6,6.2,9,15.4,9,27.6v10.2c0,10.3-2.1,18.4-6.3,24.4
				s-11,9.8-20.5,11.5l30.7,38c0.6,0.6,0.8,1.5,0.5,2.7c-0.2,1.2-1.2,1.8-2.9,1.8h-23.1c-1.6,0-2.6-0.2-3.2-0.5
				c-0.6-0.4-1.2-1-1.8-1.8l-28.4-37.3h-58v35.7c0,2.6-1.3,3.9-3.9,3.9H836c-2.8,0-4.1-1.3-4.1-3.9V675c0-3.6,1.8-5.4,5.4-5.4H933.7
				L933.7,669.6z M859.4,733.7h68.7c6.1,0,10.4-1.3,12.9-3.9c2.5-2.6,3.8-6.6,3.8-12v-7.5c0-5.4-1.3-9.4-3.8-12
				c-2.5-2.6-6.8-3.9-12.9-3.9h-66.4c-1.6,0-2.3,0.7-2.3,2.2V733.7z"/>
			<path class="st0" d="M1122.4,669.6c12.3,0,21.1,2.5,26.3,7.4c5.2,4.9,7.8,12.3,7.8,22.2v8.6c0,10-3.8,17.6-11.5,22.8
				c8.2,4.8,12.4,12.5,12.4,23.1v10.4c0,4.8-0.5,9.1-1.6,12.9s-2.8,7.1-5.3,9.8s-5.7,4.8-9.8,6.2c-4.1,1.4-9.1,2.2-15.1,2.2H1019
				c-3.6,0-5.4-1.8-5.4-5.4V675c0-3.6,1.8-5.4,5.4-5.4H1122.4L1122.4,669.6z M1041.1,721.8h73.6c6,0,10-0.9,12.2-2.7
				c2.2-1.8,3.2-4.4,3.2-7.9v-6.1c0-3.7-1-6.4-3.1-8.2c-2.1-1.7-5.5-2.6-10.1-2.6h-73.4c-1.6,0-2.3,0.8-2.3,2.3v25.2H1041.1z
				 M1041.1,741.4v26.7c0,1.6,0.8,2.3,2.3,2.3h73.6c4.8,0,8.2-0.9,10.2-2.6s3.1-4.5,3.1-8.3v-6.8c0-3.7-1.1-6.5-3.3-8.4
				c-2.2-1.9-6.3-2.9-12.3-2.9H1041.1L1041.1,741.4z"/>
			<path class="st0" d="M1224.3,669.6c2.6,0,3.9,1.3,3.9,3.9v117.7c0,2.6-1.3,3.9-3.9,3.9h-19.4c-2.8,0-4.1-1.3-4.1-3.9V673.6
				c0-2.6,1.4-3.9,4.1-3.9L1224.3,669.6z"/>
			<path class="st0" d="M1412.3,669.6c2.8,0,4.1,1.3,4.1,3.9v17.6c0,2.8-1.4,4.1-4.1,4.1H1356v96c0,2.6-1.3,3.9-3.9,3.9h-19.6
				c-2.6,0-3.9-1.3-3.9-3.9v-96h-56.3c-2.8,0-4.1-1.4-4.1-4.1v-17.6c0-2.6,1.4-3.9,4.1-3.9H1412.3z"/>
			<path class="st0" d="M1554.2,669.6c13.8,0,23.6,3.1,29.6,9.3c6,6.2,9,15.4,9,27.6v10.2c0,10.3-2.1,18.4-6.3,24.4
				c-4.2,6-11,9.8-20.5,11.5l30.7,38c0.6,0.6,0.8,1.5,0.5,2.7c-0.2,1.2-1.2,1.8-2.9,1.8h-23.1c-1.6,0-2.6-0.2-3.2-0.5
				c-0.6-0.4-1.2-1-1.8-1.8l-28.4-37.3h-58v35.7c0,2.6-1.3,3.9-3.9,3.9h-19.4c-2.8,0-4.1-1.3-4.1-3.9V675c0-3.6,1.8-5.4,5.4-5.4
				H1554.2L1554.2,669.6z M1480,733.7h68.7c6.1,0,10.4-1.3,12.9-3.9c2.5-2.6,3.8-6.6,3.8-12v-7.5c0-5.4-1.3-9.4-3.8-12
				c-2.5-2.6-6.8-3.9-12.9-3.9h-66.4c-1.6,0-2.3,0.7-2.3,2.2L1480,733.7L1480,733.7z"/>
			<path class="st0" d="M1655.1,669.6c2.6,0,3.9,1.3,3.9,3.9v71.6c0,4.8,0.4,8.8,1.2,11.9c0.8,3.2,2.1,5.7,3.9,7.5
				c1.8,1.9,4.2,3.2,7.3,3.9c3.1,0.8,6.9,1.2,11.6,1.2h49.7c4.7,0,8.5-0.4,11.6-1.2c3.1-0.8,5.5-2.1,7.3-3.9
				c1.8-1.9,3.1-4.4,3.8-7.5c0.7-3.2,1.1-7.1,1.1-11.9v-71.6c0-2.6,1.3-3.9,3.9-3.9h19.6c2.6,0,3.9,1.3,3.9,3.9v74.3
				c0,8.6-0.9,15.9-2.7,22c-1.8,6-4.7,10.9-8.7,14.7c-4,3.8-9.2,6.5-15.6,8.2s-14.1,2.5-23.2,2.5H1682c-9.1,0-16.8-0.8-23.1-2.5
				c-6.3-1.7-11.5-4.4-15.5-8.2c-4-3.8-6.9-8.7-8.8-14.7s-2.8-13.4-2.8-22v-74.3c0-2.6,1.4-3.9,4.1-3.9H1655.1L1655.1,669.6z"/>
			<path class="st0" d="M1861,669.6c2.6,0,4.9,0.2,6.8,0.5c1.9,0.4,3.6,1,5,2.1c1.4,1,2.7,2.4,3.9,4.1c1.1,1.7,2.3,4,3.5,6.9
				l37.3,86.1c0.5,1.1,1.3,1.6,2.5,1.6h2.2c1.2,0,2-0.5,2.5-1.6l37.3-86.1c1.2-2.9,2.4-5.2,3.5-6.9c1.1-1.7,2.4-3.1,3.9-4.1
				c1.4-1,3.1-1.7,4.9-2.1c1.9-0.4,4.1-0.5,6.7-0.5h19.2c6.2,0,10.4,1.4,12.6,4.2s3.2,7.6,3.2,14.4v103c0,2.6-1.4,3.9-4.1,3.9h-18.3
				c-2.6,0-3.9-1.3-3.9-3.9v-93.7c0-1.2-0.5-1.8-1.4-1.8h-1.6c-1.2,0-2,0.5-2.3,1.4l-36.2,80.4c-1.4,3.2-2.9,6-4.4,8.2
				s-3.1,4-4.8,5.5c-1.7,1.4-3.7,2.5-5.9,3.1c-2.2,0.6-4.8,0.9-7.8,0.9h-8.6c-3,0-5.6-0.3-7.8-0.9c-2.2-0.6-4.2-1.6-5.9-3.1
				c-1.7-1.4-3.4-3.3-4.8-5.5c-1.5-2.2-3-4.9-4.4-8.2l-36.2-80.4c-0.4-1-1.1-1.4-2.3-1.4h-1.6c-1,0-1.4,0.6-1.4,1.8v93.7
				c0,2.6-1.3,3.9-3.9,3.9h-18.3c-2.8,0-4.1-1.3-4.1-3.9v-103c0-6.8,1.1-11.6,3.2-14.4c2.2-2.8,6.4-4.2,12.7-4.2L1861,669.6
				L1861,669.6z"/>
		</g>
	</g>
</g>
</svg>
